<?xml version="1.0" encoding="utf-8"?>
<!-- Generator: Adobe Illustrator 27.5.0, SVG Export Plug-In . SVG Version: 6.00 Build 0)  -->
<svg version="1.1" id="Layer_2" xmlns="http://www.w3.org/2000/svg" xmlns:xlink="http://www.w3.org/1999/xlink" x="0px" y="0px"
	 viewBox="0 0 450 450" style="enable-background:new 0 0 450 450;" xml:space="preserve">
<g>
	<radialGradient id="SVGID_1_" cx="224.9999" cy="353.9062" r="281.9834" gradientUnits="userSpaceOnUse">
		<stop  offset="0.0556" style="stop-color:#003380"/>
		<stop  offset="0.0719" style="stop-color:#003688"/>
		<stop  offset="0.0977" style="stop-color:#003F9F"/>
		<stop  offset="0.1297" style="stop-color:#004EC4"/>
		<stop  offset="0.1663" style="stop-color:#0062F6"/>
		<stop  offset="0.1722" style="stop-color:#0066FF"/>
		<stop  offset="0.2249" style="stop-color:#003380"/>
		<stop  offset="0.373" style="stop-color:#003380"/>
		<stop  offset="0.4082" style="stop-color:#0066FF"/>
		<stop  offset="0.4735" style="stop-color:#003380"/>
		<stop  offset="0.6241" style="stop-color:#003380"/>
		<stop  offset="0.6618" style="stop-color:#0066FF"/>
		<stop  offset="0.722" style="stop-color:#003380"/>
		<stop  offset="0.8777" style="stop-color:#003380"/>
		<stop  offset="0.9128" style="stop-color:#0066FF"/>
		<stop  offset="0.9681" style="stop-color:#003380"/>
	</radialGradient>
	<path style="fill:url(#SVGID_1_);" d="M225,378.272c-25.805,0-46.725-20.921-46.725-46.726c0-25.804,20.92-46.725,46.725-46.725
		c25.805,0,46.725,20.921,46.725,46.725C271.725,357.352,250.805,378.272,225,378.272z M89.121,209.436l4.759,5.218
		c5.269,5.778,14.189,6.141,20.358,1.335c30.6-23.847,69.05-38.068,110.762-38.068c41.711,0,80.162,14.221,110.762,38.068
		c6.169,4.808,15.09,4.444,20.359-1.333l4.758-5.22c5.27-5.779,4.887-14.775-1.22-19.661
		c-36.947-29.557-83.774-47.252-134.659-47.252s-97.712,17.695-134.658,47.252C84.235,194.66,83.852,203.657,89.121,209.436z
		 M136.8,261.723l4.759,5.221c5.27,5.777,14.179,6.103,20.581,1.611c17.815-12.496,39.495-19.838,62.859-19.838
		c23.364,0,45.044,7.342,62.858,19.839c6.402,4.49,15.313,4.166,20.582-1.612l4.76-5.22c5.27-5.778,4.896-14.799-1.363-19.488
		c-24.229-18.152-54.3-28.917-86.837-28.917s-62.606,10.764-86.837,28.917C131.904,246.925,131.53,255.945,136.8,261.723z
		 M41.442,157.148l4.759,5.218c5.269,5.778,14.199,6.155,20.26,1.215c43.278-35.278,98.48-56.456,158.539-56.456
		s115.262,21.178,158.539,56.456c6.063,4.941,14.991,4.564,20.26-1.215l4.76-5.218c5.268-5.779,4.879-14.764-1.148-19.747
		C357.81,96.397,294.233,71.728,225,71.728c-69.232,0-132.809,24.669-182.411,65.674C36.562,142.383,36.173,151.37,41.442,157.148z"
		/>
	
		<linearGradient id="SVGID_00000054227033354181064850000003525899025932721316_" gradientUnits="userSpaceOnUse" x1="224.9999" y1="378.2725" x2="224.9999" y2="71.7275">
		<stop  offset="0" style="stop-color:#878787"/>
		<stop  offset="1" style="stop-color:#FAFAFA"/>
	</linearGradient>
	<path style="fill:url(#SVGID_00000054227033354181064850000003525899025932721316_);" d="M225,378.272
		c-25.805,0-46.725-20.921-46.725-46.726c0-25.804,20.92-46.725,46.725-46.725c25.805,0,46.725,20.921,46.725,46.725
		C271.725,357.352,250.805,378.272,225,378.272z M89.121,209.436l4.759,5.218c5.269,5.778,14.189,6.141,20.358,1.335
		c30.6-23.847,69.05-38.068,110.762-38.068c41.711,0,80.162,14.221,110.762,38.068c6.169,4.808,15.09,4.444,20.359-1.333l4.758-5.22
		c5.27-5.779,4.887-14.775-1.22-19.661c-36.947-29.557-83.774-47.252-134.659-47.252s-97.712,17.695-134.658,47.252
		C84.235,194.66,83.852,203.657,89.121,209.436z M136.8,261.723l4.759,5.221c5.27,5.777,14.179,6.103,20.581,1.611
		c17.815-12.496,39.495-19.838,62.859-19.838c23.364,0,45.044,7.342,62.858,19.839c6.402,4.49,15.313,4.166,20.582-1.612l4.76-5.22
		c5.27-5.778,4.896-14.799-1.363-19.488c-24.229-18.152-54.3-28.917-86.837-28.917s-62.606,10.764-86.837,28.917
		C131.904,246.925,131.53,255.945,136.8,261.723z M41.442,157.148l4.759,5.218c5.269,5.778,14.199,6.155,20.26,1.215
		c43.278-35.278,98.48-56.456,158.539-56.456s115.262,21.178,158.539,56.456c6.063,4.941,14.991,4.564,20.26-1.215l4.76-5.218
		c5.268-5.779,4.879-14.764-1.148-19.747C357.81,96.397,294.233,71.728,225,71.728c-69.232,0-132.809,24.669-182.411,65.674
		C36.562,142.383,36.173,151.37,41.442,157.148z"/>
	<g>
		<path style="fill:#DEDEDE;" d="M313.973,251.297c-0.229,2.335-1.221,4.591-2.865,6.395l-4.761,5.22
			c-2.215,2.43-5.348,3.769-8.821,3.769c-2.826,0-5.682-0.911-8.041-2.566c-18.98-13.315-41.279-20.353-64.484-20.353
			s-45.504,7.038-64.485,20.351c-2.359,1.655-5.214,2.566-8.04,2.566h-0.001c-3.474,0-6.607-1.338-8.823-3.767l-4.759-5.221
			c-1.645-1.803-2.635-4.059-2.865-6.393c-0.004,0.036-0.012,0.069-0.016,0.104c-0.286,3.026,0.764,6.094,2.881,8.414l4.759,5.221
			c2.216,2.429,5.349,3.767,8.823,3.767h0.001c2.826,0,5.681-0.911,8.04-2.566c18.981-13.313,41.28-20.351,64.485-20.351
			s45.504,7.038,64.484,20.353c2.359,1.655,5.215,2.566,8.041,2.566c3.474,0,6.606-1.339,8.821-3.769l4.761-5.22
			c2.117-2.321,3.167-5.39,2.881-8.416C313.984,251.364,313.977,251.331,313.973,251.297z"/>
		<path style="fill:#DEDEDE;" d="M225,373.316c-23.847,0-43.299-19.119-43.866-42.831c-0.008,0.354-0.027,0.705-0.027,1.061
			c0,24.204,19.691,43.893,43.893,43.893c24.202,0,43.894-19.689,43.894-43.893c0-0.357-0.02-0.707-0.028-1.061
			C268.299,354.197,248.847,373.316,225,373.316z"/>
		<path style="fill:#DEDEDE;" d="M361.66,198.947c-0.23,2.367-1.225,4.648-2.875,6.457l-4.758,5.221
			c-2.198,2.41-5.264,3.737-8.632,3.737c-2.832,0-5.635-0.969-7.893-2.73c-32.46-25.296-71.362-38.666-112.503-38.666
			c-41.14,0-80.043,13.37-112.503,38.666c-2.258,1.759-5.061,2.729-7.892,2.729c-3.369,0-6.435-1.327-8.633-3.738l-4.759-5.218
			c-1.648-1.807-2.642-4.089-2.873-6.457c-0.008,0.082-0.025,0.16-0.031,0.242c-0.237,3.015,0.821,6.055,2.904,8.339l4.759,5.218
			c2.199,2.411,5.265,3.738,8.633,3.738c2.831,0,5.634-0.969,7.892-2.729c32.46-25.295,71.363-38.665,112.503-38.665
			c41.141,0,80.043,13.37,112.503,38.665c2.258,1.761,5.061,2.73,7.893,2.73c3.368,0,6.434-1.328,8.632-3.738l4.758-5.22
			c2.084-2.284,3.143-5.324,2.905-8.339C361.685,199.107,361.669,199.027,361.66,198.947z"/>
		<path style="fill:#DEDEDE;" d="M409.342,146.628c-0.23,2.383-1.228,4.679-2.877,6.488l-4.758,5.218
			c-2.191,2.403-5.23,3.726-8.555,3.726c-2.832,0-5.611-0.994-7.824-2.798C340.162,122.446,283.223,102.17,225,102.17
			s-115.161,20.276-160.328,57.093c-2.213,1.804-4.992,2.798-7.824,2.798c-3.326-0.001-6.364-1.323-8.554-3.726l-4.76-5.218
			c-1.65-1.81-2.646-4.105-2.877-6.489c-0.011,0.106-0.031,0.209-0.038,0.316c-0.212,3.008,0.851,6.032,2.916,8.297l4.76,5.218
			c2.191,2.402,5.228,3.725,8.554,3.726c2.832,0,5.61-0.994,7.824-2.798C109.839,124.57,166.777,104.294,225,104.294
			s115.162,20.276,160.328,57.093c2.213,1.805,4.992,2.798,7.824,2.798c3.325,0,6.363-1.323,8.555-3.726l4.758-5.218
			c2.066-2.264,3.128-5.288,2.916-8.296C409.373,146.837,409.353,146.734,409.342,146.628z"/>
	</g>
	
		<radialGradient id="SVGID_00000121969905840340429160000013294788901326431648_" cx="224.9997" cy="331.5474" r="45.392" gradientUnits="userSpaceOnUse">
		<stop  offset="0" style="stop-color:#FFFFFF"/>
		<stop  offset="0.1708" style="stop-color:#FCFCFC"/>
		<stop  offset="0.3209" style="stop-color:#F1F1F1"/>
		<stop  offset="0.4633" style="stop-color:#DFDFDF"/>
		<stop  offset="0.6009" style="stop-color:#C5C5C5"/>
		<stop  offset="0.7351" style="stop-color:#A5A5A5"/>
		<stop  offset="0.8649" style="stop-color:#7D7D7D"/>
		<stop  offset="0.9444" style="stop-color:#616161"/>
	</radialGradient>
	<path style="fill:url(#SVGID_00000121969905840340429160000013294788901326431648_);" d="M225,376.94
		c-25.069,0-45.392-20.324-45.392-45.393c0-25.067,20.323-45.392,45.392-45.392c25.068,0,45.392,20.324,45.392,45.392
		C270.392,356.615,250.068,376.94,225,376.94z"/>
	<g>
		<path style="fill:#1A57B3;" d="M225,73.144c33.691,0,66.69,5.845,98.078,17.373c30.323,11.137,58.393,27.278,83.43,47.976
			c2.531,2.093,4.053,5.059,4.285,8.351c0.239,3.393-0.957,6.8-3.281,9.35l-4.76,5.218c-2.461,2.701-5.871,4.188-9.6,4.188
			c-3.157,0-6.253-1.107-8.719-3.116C339.519,125.873,282.897,105.71,225,105.71s-114.519,20.163-159.433,56.775
			c-2.465,2.009-5.562,3.115-8.718,3.115c-3.729,0-7.138-1.486-9.601-4.187l-4.76-5.218c-2.325-2.55-3.521-5.959-3.282-9.351
			c0.232-3.293,1.754-6.259,4.285-8.351c25.038-20.698,53.107-36.839,83.43-47.976C158.31,78.989,191.309,73.144,225,73.144
			L225,73.144z M225,143.939c24.726,0,48.977,4.192,72.079,12.459c22.321,7.988,43.078,19.59,61.695,34.482
			c2.536,2.029,4.072,4.94,4.328,8.198c0.269,3.403-0.925,6.831-3.27,9.403l-4.758,5.22c-2.47,2.708-5.907,4.2-9.679,4.2
			c-3.144,0-6.257-1.076-8.764-3.029c-32.208-25.1-70.81-38.367-111.632-38.367c-40.821,0-79.424,13.268-111.632,38.367
			c-2.506,1.952-5.618,3.028-8.762,3.028c-3.771,0-7.209-1.492-9.679-4.2l-4.759-5.218c-2.345-2.572-3.537-6-3.27-9.403
			c0.256-3.258,1.793-6.169,4.329-8.198c18.616-14.893,39.373-26.494,61.695-34.482C176.023,148.131,200.274,143.939,225,143.939
			L225,143.939z M225,214.735c31.25,0,60.983,9.901,85.987,28.634c2.543,1.904,4.108,4.709,4.41,7.896
			c0.324,3.425-0.859,6.889-3.244,9.505l-4.76,5.22c-2.487,2.727-5.991,4.23-9.868,4.23c-3.115,0-6.26-1.003-8.853-2.822
			c-18.741-13.147-40.759-20.097-63.672-20.097c-22.913,0-44.93,6.948-63.672,20.095c-2.595,1.82-5.739,2.822-8.854,2.822
			c-3.876,0-7.381-1.502-9.868-4.229l-4.76-5.221c-2.385-2.615-3.567-6.079-3.244-9.502c0.301-3.188,1.867-5.993,4.41-7.898
			C164.017,224.636,193.751,214.735,225,214.735L225,214.735z M225,286.238c24.983,0,45.31,20.326,45.31,45.309
			c0,24.983-20.326,45.31-45.31,45.31c-24.984,0-45.309-20.326-45.309-45.31C179.691,306.565,200.016,286.238,225,286.238
			L225,286.238z M225,71.728c-69.232,0-132.809,24.669-182.411,65.674c-6.027,4.982-6.416,13.968-1.147,19.747l4.759,5.218
			c2.83,3.104,6.717,4.649,10.647,4.649c3.387,0,6.807-1.147,9.613-3.435c43.278-35.278,98.48-56.456,158.539-56.456
			s115.262,21.178,158.539,56.456c2.806,2.287,6.227,3.435,9.613,3.435c3.931,0,7.816-1.545,10.647-4.649l4.76-5.218
			c5.268-5.779,4.879-14.764-1.148-19.747C357.81,96.397,294.233,71.728,225,71.728L225,71.728z M225,142.523
			c-50.885,0-97.712,17.695-134.658,47.252c-6.107,4.885-6.49,13.882-1.221,19.661l4.759,5.218c2.846,3.12,6.758,4.662,10.725,4.662
			c3.378,0,6.796-1.116,9.633-3.327c30.6-23.847,69.05-38.068,110.762-38.068c41.711,0,80.162,14.221,110.762,38.068
			c2.836,2.211,6.256,3.328,9.634,3.328c3.968,0,7.879-1.54,10.726-4.662l4.758-5.22c5.27-5.779,4.887-14.775-1.22-19.661
			C322.712,160.218,275.885,142.523,225,142.523L225,142.523z M225,213.319c-32.537,0-62.606,10.764-86.837,28.917
			c-6.258,4.689-6.632,13.71-1.362,19.487l4.759,5.221c2.883,3.161,6.858,4.69,10.914,4.69c3.356,0,6.768-1.045,9.667-3.079
			c17.815-12.496,39.495-19.838,62.859-19.838c23.364,0,45.044,7.342,62.858,19.839c2.898,2.033,6.311,3.079,9.667,3.079
			c4.057,0,8.031-1.529,10.915-4.691l4.76-5.22c5.27-5.778,4.896-14.799-1.363-19.488C287.607,224.083,257.537,213.319,225,213.319
			L225,213.319z M225,284.822c-25.805,0-46.725,20.921-46.725,46.725c0,25.805,20.92,46.726,46.725,46.726
			c25.805,0,46.725-20.921,46.725-46.726C271.725,305.743,250.805,284.822,225,284.822L225,284.822z"/>
	</g>
	<g>
		<path style="fill:#EDEDED;" d="M44.394,142.416C95.116,100.484,159.257,77.391,225,77.391s129.884,23.093,180.606,65.025
			c2.071,1.712,3.362,4.094,3.701,6.75c0.099-0.734,0.126-1.479,0.073-2.222c-0.204-2.903-1.546-5.517-3.775-7.36
			C354.884,97.652,290.743,74.56,225,74.56S95.116,97.652,44.394,139.584c-2.23,1.843-3.57,4.456-3.775,7.359
			c-0.053,0.744-0.026,1.488,0.073,2.222C41.031,146.509,42.323,144.128,44.394,142.416z"/>
		<path style="fill:#EDEDED;" d="M225,287.654c-24.203,0-43.893,19.69-43.893,43.893c0,0.475,0.021,0.945,0.036,1.416
			c0.751-23.549,20.13-42.477,43.857-42.477s43.105,18.928,43.857,42.477c0.015-0.471,0.036-0.941,0.036-1.416
			C268.894,307.344,249.202,287.654,225,287.654z"/>
		<path style="fill:#EDEDED;" d="M310.139,244.502C285.381,225.954,255.941,216.15,225,216.15c-30.94,0-60.381,9.804-85.139,28.352
			c-2.219,1.662-3.586,4.112-3.849,6.898c-0.077,0.811-0.05,1.622,0.06,2.424c0.354-2.616,1.68-4.911,3.79-6.49
			c24.758-18.548,54.199-28.352,85.139-28.352c30.941,0,60.381,9.804,85.139,28.352c2.108,1.579,3.435,3.876,3.79,6.489
			c0.109-0.801,0.136-1.614,0.06-2.424C313.726,248.614,312.357,246.164,310.139,244.502z"/>
		<path style="fill:#EDEDED;" d="M357.89,191.986c-38.134-30.506-84.086-46.631-132.89-46.631
			c-48.804,0-94.756,16.125-132.889,46.632c-2.227,1.781-3.577,4.339-3.802,7.202c-0.061,0.769-0.034,1.539,0.069,2.297
			c0.342-2.644,1.646-4.999,3.732-6.667c38.133-30.507,84.085-46.631,132.889-46.631c48.804,0,94.756,16.124,132.89,46.631
			c2.087,1.669,3.391,4.024,3.733,6.668c0.103-0.759,0.13-1.528,0.068-2.297C361.467,196.326,360.117,193.768,357.89,191.986z"/>
	</g>
</g>
</svg>
